solid BankOfChina
facet normal 0.0 -1.0 0.0
  outer loop
    vertex 50.0 0.0 50.0
    vertex 0.0 0.0 0.0
    vertex 50.0 0.0 0.0
  endloop
endfacet
facet normal 0.0 -1.0 0.0
  outer loop
    vertex 0.0 0.0 0.0
    vertex 50.0 0.0 50.0
    vertex 0.0 0.0 50.0
  endloop
endfacet
facet normal -1.0 0.0 0.0
  outer loop
    vertex 50.0 49.99999999999999 50.0
    vertex 50.0 0.0 0.0
    vertex 50.0 0.0 50.0
  endloop
endfacet
facet normal -1.0 0.0 0.0
  outer loop
    vertex 50.0 0.0 0.0
    vertex 50.0 49.99999999999999 50.0
    vertex 50.0 49.99999999999999 0.0
  endloop
endfacet
facet normal 0.0 -1.0 0.0
  outer loop
    vertex 50.0 49.99999999999999 50.0
    vertex 0.0 49.99999999999999 0.0
    vertex 50.0 49.99999999999999 0.0
  endloop
endfacet
facet normal 0.0 -1.0 0.0
  outer loop
    vertex 0.0 49.99999999999999 0.0
    vertex 50.0 49.99999999999999 50.0
    vertex 0.0 49.99999999999999 50.0
  endloop
endfacet
facet normal 1.0 -0.0 -0.0
  outer loop
    vertex 0.0 49.99999999999999 0.0
    vertex 0.0 0.0 50.0
    vertex 0.0 0.0 0.0
  endloop
endfacet
facet normal 1.0 -0.0 -0.0
  outer loop
    vertex 0.0 0.0 50.0
    vertex 0.0 49.99999999999999 0.0
    vertex 0.0 49.99999999999999 50.0
  endloop
endfacet
facet normal 0.0 -1.0 0.0
  outer loop
    vertex 0.0 0.0 100.0
    vertex 0.0 0.0 50.0
    vertex 25.0 0.0 75.0
  endloop
endfacet
facet normal 0.0 -1.0 0.0
  outer loop
    vertex 50.0 0.0 100.0
    vertex 0.0 0.0 100.0
    vertex 25.0 0.0 75.0
  endloop
endfacet
facet normal 0.0 -1.0 0.0
  outer loop
    vertex 0.0 0.0 100.0
    vertex 50.0 0.0 100.0
    vertex 25.0 0.0 125.0
  endloop
endfacet
facet normal -1.0 0.0 0.0
  outer loop
    vertex 50.0 49.99999999999999 50.0
    vertex 50.0 24.999999999999996 75.0
    vertex 50.0 49.99999999999999 100.0
  endloop
endfacet
facet normal -1.0 0.0 0.0
  outer loop
    vertex 50.0 49.99999999999999 50.0
    vertex 50.0 0.0 50.0
    vertex 50.0 24.999999999999996 75.0
  endloop
endfacet
facet normal 0.0 -1.0 0.0
  outer loop
    vertex 0.0 49.99999999999999 100.0
    vertex 0.0 49.99999999999999 50.0
    vertex 25.0 49.99999999999999 75.0
  endloop
endfacet
facet normal 1.0 -0.0 -0.0
  outer loop
    vertex 0.0 24.999999999999996 75.0
    vertex 0.0 0.0 100.0
    vertex 0.0 0.0 50.0
  endloop
endfacet
facet normal 0.0 -1.0 0.0
  outer loop
    vertex 25.0 49.99999999999999 75.0
    vertex 0.0 49.99999999999999 50.0
    vertex 50.0 49.99999999999999 50.0
  endloop
endfacet
facet normal -0.7071067811865476 0.0 -0.7071067811865476
  outer loop
    vertex 50.0 49.99999999999999 100.0
    vertex 50.0 0.0 100.0
    vertex 25.0 24.999999999999996 125.0
  endloop
endfacet
facet normal -0.7071067811865475 0.7071067811865476 -0.0
  outer loop
    vertex 50.0 49.99999999999999 150.0
    vertex 50.0 49.99999999999999 100.0
    vertex 25.0 24.999999999999996 125.0
  endloop
endfacet
facet normal -0.7071067811865475 -0.7071067811865476 0.0
  outer loop
    vertex 50.0 0.0 150.0
    vertex 25.0 24.999999999999996 125.0
    vertex 50.0 0.0 100.0
  endloop
endfacet
facet normal 0.0 -1.0 0.0
  outer loop
    vertex 0.0 0.0 150.0
    vertex 0.0 0.0 100.0
    vertex 25.0 0.0 125.0
  endloop
endfacet
facet normal -0.7071067811865476 0.7071067811865476 -0.0
  outer loop
    vertex 50.0 49.99999999999999 150.0
    vertex 25.0 24.999999999999996 125.0
    vertex 25.0 24.999999999999996 175.0
  endloop
endfacet
facet normal 0.0 -1.0 0.0
  outer loop
    vertex 0.0 49.99999999999999 150.0
    vertex 25.0 49.99999999999999 125.0
    vertex 50.0 49.99999999999999 150.0
  endloop
endfacet
facet normal 1.0 -0.0 -0.0
  outer loop
    vertex 0.0 24.999999999999996 125.0
    vertex 0.0 0.0 150.0
    vertex 0.0 0.0 100.0
  endloop
endfacet
facet normal 0.0 -1.0 0.0
  outer loop
    vertex 0.0 49.99999999999999 150.0
    vertex 0.0 49.99999999999999 100.0
    vertex 25.0 49.99999999999999 125.0
  endloop
endfacet
facet normal -0.0 1.0 -0.0
  outer loop
    vertex 50.0 0.0 200.0
    vertex 50.0 0.0 150.0
    vertex 25.0 0.0 175.0
  endloop
endfacet
facet normal -0.7071067811865475 -0.7071067811865476 0.0
  outer loop
    vertex 25.0 24.999999999999996 175.0
    vertex 25.0 24.999999999999996 125.0
    vertex 50.0 0.0 150.0
  endloop
endfacet
facet normal -0.7071067811865475 -0.7071067811865476 0.0
  outer loop
    vertex 25.0 24.999999999999996 225.0
    vertex 25.0 24.999999999999996 175.0
    vertex 50.0 0.0 200.0
  endloop
endfacet
facet normal -0.0 0.7071067811865476 -0.7071067811865475
  outer loop
    vertex 25.0 24.999999999999996 225.0
    vertex 50.0 0.0 200.0
    vertex 0.0 0.0 200.0
  endloop
endfacet
facet normal 1.0 -0.0 -0.0
  outer loop
    vertex 0.0 24.999999999999996 175.0
    vertex 0.0 0.0 200.0
    vertex 0.0 0.0 150.0
  endloop
endfacet
facet normal 1.0 -0.0 -0.0
  outer loop
    vertex 0.0 24.999999999999996 125.0
    vertex 0.0 24.999999999999996 175.0
    vertex 0.0 0.0 150.0
  endloop
endfacet
facet normal 1.0 -0.0 -0.0
  outer loop
    vertex 0.0 24.999999999999996 175.0
    vertex 0.0 24.999999999999996 125.0
    vertex 0.0 49.99999999999999 150.0
  endloop
endfacet
facet normal -0.7071067811865475 -0.7071067811865476 0.0
  outer loop
    vertex 0.0 49.99999999999999 200.0
    vertex 0.0 49.99999999999999 150.0
    vertex 25.0 24.999999999999996 175.0
  endloop
endfacet
facet normal -0.7071067811865475 -0.7071067811865476 0.0
  outer loop
    vertex 50.0 0.0 200.0
    vertex 25.0 24.999999999999996 175.0
    vertex 50.0 0.0 150.0
  endloop
endfacet
facet normal 1.0 -0.0 -0.0
  outer loop
    vertex 0.0 24.999999999999996 225.0
    vertex 0.0 0.0 250.0
    vertex 0.0 0.0 200.0
  endloop
endfacet
facet normal -0.7071067811865475 0.7071067811865476 -0.0
  outer loop
    vertex 25.0 24.999999999999996 275.0
    vertex 25.0 24.999999999999996 225.0
    vertex 0.0 0.0 250.0
  endloop
endfacet
facet normal -0.7071067811865475 -0.7071067811865476 0.0
  outer loop
    vertex 0.0 49.99999999999999 250.0
    vertex 0.0 49.99999999999999 200.0
    vertex 25.0 24.999999999999996 225.0
  endloop
endfacet
facet normal -0.7071067811865475 -0.7071067811865476 0.0
  outer loop
    vertex 25.0 24.999999999999996 225.0
    vertex 0.0 49.99999999999999 200.0
    vertex 25.0 24.999999999999996 175.0
  endloop
endfacet
facet normal -0.7071067811865475 -0.7071067811865476 0.0
  outer loop
    vertex 0.0 49.99999999999999 300.0
    vertex 0.0 49.99999999999999 250.0
    vertex 25.0 24.999999999999996 275.0
  endloop
endfacet
facet normal -0.7071067811865475 -0.7071067811865476 0.0
  outer loop
    vertex 25.0 24.999999999999996 275.0
    vertex 0.0 49.99999999999999 250.0
    vertex 25.0 24.999999999999996 225.0
  endloop
endfacet
facet normal -0.7071067811865475 -0.7071067811865476 2.6276289325905052e-17
  outer loop
    vertex 25.0 24.999999999999996 275.0
    vertex 24.422649730810377 25.57735026918962 324.42264973081035
    vertex 0.0 49.99999999999999 300.0
  endloop
endfacet
facet normal -0.7071067811865475 -0.7071067811865476 2.6276289325905052e-17
  outer loop
    vertex 24.422649730810377 25.57735026918962 324.42264973081035
    vertex 25.0 24.999999999999996 275.0
    vertex 25.0 24.999999999999996 325.0
  endloop
endfacet
facet normal -0.7071067811865475 -0.7071067811865476 2.6276289325905052e-17
  outer loop
    vertex 0.0 49.99999999999999 300.0
    vertex 24.422649730810377 25.57735026918962 324.42264973081035
    vertex 21.46446609406726 28.535533905932752 321.46446609406723
  endloop
endfacet
facet normal -0.7071067811865475 -0.7071067811865476 2.6276289325905052e-17
  outer loop
    vertex 21.46446609406726 28.535533905932752 321.46446609406723
    vertex 24.422649730810377 25.57735026918962 324.42264973081035
    vertex 22.15728641709481 27.84271358290519 322.15728641709484
  endloop
endfacet
facet normal -0.7071067811865475 -0.7071067811865476 2.6276289325905052e-17
  outer loop
    vertex 24.422649730810377 25.57735026918962 324.42264973081035
    vertex 25.0 24.999999999999996 325.0
    vertex 22.15728641709481 27.84271358290519 326.6597810755304
  endloop
endfacet
facet normal -0.7071067811865475 -0.7071067811865476 2.6276289325905052e-17
  outer loop
    vertex 22.15728641709481 27.84271358290519 326.6597810755304
    vertex 25.0 24.999999999999996 325.0
    vertex 22.15728641709481 27.84271358290519 327.8072864170948
  endloop
endfacet
facet normal -0.7071067811865475 -0.7071067811865476 2.6276289325905052e-17
  outer loop
    vertex 22.15728641709481 27.84271358290519 322.15728641709484
    vertex 21.464466094067262 28.535533905932734 346.46446609406723
    vertex 21.46446609406726 28.535533905932752 321.46446609406723
  endloop
endfacet
facet normal -0.7071067811865475 -0.7071067811865476 2.6276289325905052e-17
  outer loop
    vertex 21.464466094067262 28.535533905932734 346.46446609406723
    vertex 22.15728641709481 27.84271358290519 322.15728641709484
    vertex 22.15728641709481 27.84271358290519 326.6597810755304
  endloop
endfacet
facet normal -0.7071067811865475 -0.7071067811865476 2.6276289325905052e-17
  outer loop
    vertex 21.464466094067262 28.535533905932734 346.46446609406723
    vertex 22.15728641709481 27.84271358290519 326.6597810755304
    vertex 22.15728641709481 27.84271358290519 327.8072864170948
  endloop
endfacet
facet normal -0.7071067811865475 -0.7071067811865476 2.6276289325905052e-17
  outer loop
    vertex 21.464466094067262 28.535533905932734 346.46446609406723
    vertex 22.15728641709481 27.84271358290519 327.8072864170948
    vertex 22.15728641709481 27.84271358290519 347.1572864170948
  endloop
endfacet
facet normal -0.7071067811865475 0.7071067811865476 -0.0
  outer loop
    vertex 0.0 0.0 250.0
    vertex 25.0 24.999999999999996 225.0
    vertex 0.0 0.0 200.0
  endloop
endfacet
facet normal -0.7071067811865476 0.7071067811865476 -1.7723725198934847e-17
  outer loop
    vertex 22.157286417094813 22.157286417094813 347.1572864170948
    vertex 21.46446609406726 21.464466094067255 321.46446609406723
    vertex 21.46446609406726 21.464466094067255 346.46446609406723
  endloop
endfacet
facet normal -0.7071067811865476 0.7071067811865476 -1.7723725198934847e-17
  outer loop
    vertex 25.0 24.999999999999996 325.0
    vertex 22.157286417094813 22.157286417094813 326.6597810755304
    vertex 22.157286417094813 22.157286417094813 327.8072864170948
  endloop
endfacet
facet normal -0.7071067811865476 0.7071067811865476 -1.7723725198934847e-17
  outer loop
    vertex 22.157286417094813 22.157286417094813 326.6597810755304
    vertex 25.0 24.999999999999996 325.0
    vertex 24.422649730810363 24.42264973081036 324.4226497308104
  endloop
endfacet
facet normal -0.7071067811865476 0.7071067811865476 -1.7723725198934847e-17
  outer loop
    vertex 21.46446609406726 21.464466094067255 321.46446609406723
    vertex 25.0 24.999999999999996 275.0
    vertex 0.0 0.0 300.0
  endloop
endfacet
facet normal -0.7071067811865476 0.7071067811865476 -1.7723725198934847e-17
  outer loop
    vertex 25.0 24.999999999999996 275.0
    vertex 21.46446609406726 21.464466094067255 321.46446609406723
    vertex 22.157286417094813 22.157286417094813 322.15728641709484
  endloop
endfacet
facet normal -0.7071067811865476 0.7071067811865476 -1.7723725198934847e-17
  outer loop
    vertex 22.157286417094813 22.157286417094813 322.15728641709484
    vertex 21.46446609406726 21.464466094067255 321.46446609406723
    vertex 22.157286417094813 22.157286417094813 347.1572864170948
  endloop
endfacet
facet normal -0.7071067811865476 0.7071067811865476 -1.7723725198934847e-17
  outer loop
    vertex 22.157286417094813 22.157286417094813 322.15728641709484
    vertex 22.157286417094813 22.157286417094813 347.1572864170948
    vertex 22.157286417094813 22.157286417094813 327.8072864170948
  endloop
endfacet
facet normal -0.7071067811865476 0.7071067811865476 -1.7723725198934847e-17
  outer loop
    vertex 22.157286417094813 22.157286417094813 322.15728641709484
    vertex 22.157286417094813 22.157286417094813 327.8072864170948
    vertex 22.157286417094813 22.157286417094813 326.6597810755304
  endloop
endfacet
facet normal -0.7071067811865476 0.7071067811865476 -1.7723725198934847e-17
  outer loop
    vertex 25.0 24.999999999999996 275.0
    vertex 22.157286417094813 22.157286417094813 322.15728641709484
    vertex 24.422649730810363 24.42264973081036 324.4226497308104
  endloop
endfacet
facet normal -0.7071067811865476 0.7071067811865476 -1.7723725198934847e-17
  outer loop
    vertex 25.0 24.999999999999996 275.0
    vertex 24.422649730810363 24.42264973081036 324.4226497308104
    vertex 25.0 24.999999999999996 325.0
  endloop
endfacet
facet normal -0.7071067811865475 0.7071067811865476 -0.0
  outer loop
    vertex 0.0 0.0 300.0
    vertex 25.0 24.999999999999996 275.0
    vertex 0.0 0.0 250.0
  endloop
endfacet
facet normal 1.0 -0.0 -0.0
  outer loop
    vertex 0.0 24.999999999999996 275.0
    vertex 0.0 0.0 300.0
    vertex 0.0 0.0 250.0
  endloop
endfacet
facet normal 1.0 -0.0 -0.0
  outer loop
    vertex 0.0 49.99999999999999 300.0
    vertex 0.0 0.0 300.0
    vertex 0.0 24.999999999999996 275.0
  endloop
endfacet
facet normal 0.0 -1.0 0.0
  outer loop
    vertex 50.0 49.99999999999999 150.0
    vertex 25.0 49.99999999999999 125.0
    vertex 50.0 49.99999999999999 100.0
  endloop
endfacet
facet normal 0.0 -1.0 0.0
  outer loop
    vertex 50.0 49.99999999999999 100.0
    vertex 25.0 49.99999999999999 75.0
    vertex 50.0 49.99999999999999 50.0
  endloop
endfacet
facet normal 0.0 -1.0 0.0
  outer loop
    vertex 50.0 49.99999999999999 100.0
    vertex 0.0 49.99999999999999 100.0
    vertex 25.0 49.99999999999999 75.0
  endloop
endfacet
facet normal 0.0 -1.0 0.0
  outer loop
    vertex 0.0 49.99999999999999 100.0
    vertex 50.0 49.99999999999999 100.0
    vertex 25.0 49.99999999999999 125.0
  endloop
endfacet
facet normal -1.0 0.0 0.0
  outer loop
    vertex 50.0 24.999999999999996 75.0
    vertex 50.0 0.0 50.0
    vertex 50.0 0.0 100.0
  endloop
endfacet
facet normal -1.0 0.0 0.0
  outer loop
    vertex 50.0 49.99999999999999 100.0
    vertex 50.0 24.999999999999996 75.0
    vertex 50.0 0.0 100.0
  endloop
endfacet
facet normal 0.0 -1.0 0.0
  outer loop
    vertex 25.0 0.0 75.0
    vertex 0.0 0.0 50.0
    vertex 50.0 0.0 50.0
  endloop
endfacet
facet normal 0.0 -1.0 0.0
  outer loop
    vertex 50.0 0.0 100.0
    vertex 25.0 0.0 75.0
    vertex 50.0 0.0 50.0
  endloop
endfacet
facet normal 0.0 -1.0 0.0
  outer loop
    vertex 50.0 0.0 150.0
    vertex 25.0 0.0 125.0
    vertex 50.0 0.0 100.0
  endloop
endfacet
facet normal 0.0 -1.0 0.0
  outer loop
    vertex 50.0 0.0 150.0
    vertex 0.0 0.0 150.0
    vertex 25.0 0.0 125.0
  endloop
endfacet
facet normal 0.0 -1.0 0.0
  outer loop
    vertex 0.0 0.0 150.0
    vertex 50.0 0.0 150.0
    vertex 25.0 0.0 175.0
  endloop
endfacet
facet normal -0.0 1.0 -0.0
  outer loop
    vertex 50.0 0.0 200.0
    vertex 25.0 0.0 175.0
    vertex 0.0 0.0 200.0
  endloop
endfacet
facet normal -0.0 1.0 -0.0
  outer loop
    vertex 0.0 0.0 200.0
    vertex 25.0 0.0 175.0
    vertex 0.0 0.0 150.0
  endloop
endfacet
facet normal 1.0 -0.0 -0.0
  outer loop
    vertex 0.0 49.99999999999999 100.0
    vertex 0.0 24.999999999999996 75.0
    vertex 0.0 49.99999999999999 50.0
  endloop
endfacet
facet normal 1.0 -0.0 -0.0
  outer loop
    vertex 0.0 24.999999999999996 75.0
    vertex 0.0 24.999999999999996 125.0
    vertex 0.0 0.0 100.0
  endloop
endfacet
facet normal 1.0 -0.0 -0.0
  outer loop
    vertex 0.0 24.999999999999996 125.0
    vertex 0.0 24.999999999999996 75.0
    vertex 0.0 49.99999999999999 100.0
  endloop
endfacet
facet normal 1.0 -0.0 -0.0
  outer loop
    vertex 0.0 49.99999999999999 150.0
    vertex 0.0 24.999999999999996 125.0
    vertex 0.0 49.99999999999999 100.0
  endloop
endfacet
facet normal 1.0 -0.0 -0.0
  outer loop
    vertex 0.0 49.99999999999999 200.0
    vertex 0.0 24.999999999999996 175.0
    vertex 0.0 49.99999999999999 150.0
  endloop
endfacet
facet normal 1.0 -0.0 -0.0
  outer loop
    vertex 0.0 24.999999999999996 175.0
    vertex 0.0 24.999999999999996 225.0
    vertex 0.0 0.0 200.0
  endloop
endfacet
facet normal 1.0 -0.0 -0.0
  outer loop
    vertex 0.0 24.999999999999996 225.0
    vertex 0.0 24.999999999999996 175.0
    vertex 0.0 49.99999999999999 200.0
  endloop
endfacet
facet normal 1.0 -0.0 -0.0
  outer loop
    vertex 0.0 49.99999999999999 250.0
    vertex 0.0 24.999999999999996 225.0
    vertex 0.0 49.99999999999999 200.0
  endloop
endfacet
facet normal 1.0 -0.0 -0.0
  outer loop
    vertex 0.0 24.999999999999996 225.0
    vertex 0.0 24.999999999999996 275.0
    vertex 0.0 0.0 250.0
  endloop
endfacet
facet normal 1.0 -0.0 -0.0
  outer loop
    vertex 0.0 24.999999999999996 275.0
    vertex 0.0 24.999999999999996 225.0
    vertex 0.0 49.99999999999999 250.0
  endloop
endfacet
facet normal 1.0 -0.0 -0.0
  outer loop
    vertex 0.0 49.99999999999999 300.0
    vertex 0.0 24.999999999999996 275.0
    vertex 0.0 49.99999999999999 250.0
  endloop
endfacet
facet normal 1.0 -0.0 -0.0
  outer loop
    vertex 0.0 49.99999999999999 50.0
    vertex 0.0 24.999999999999996 75.0
    vertex 0.0 0.0 50.0
  endloop
endfacet
facet normal 0.0 -0.7071067811865476 -0.7071067811865475
  outer loop
    vertex 25.0 24.999999999999996 175.0
    vertex 0.0 49.99999999999999 150.0
    vertex 50.0 49.99999999999999 150.0
  endloop
endfacet
facet normal 0.5906904945688799 -0.8068982213550678 1.6751585704679338e-16
  outer loop
    vertex 22.15728641709481 27.84271358290519 322.15728641709484
    vertex 21.464466094067266 27.335533905932735 326.98896026004576
    vertex 21.464466094067266 27.335533905932735 321.46446609406723
  endloop
endfacet
facet normal 0.5906904945688799 -0.8068982213550678 1.6751585704679338e-16
  outer loop
    vertex 21.464466094067266 27.335533905932735 326.98896026004576
    vertex 22.15728641709481 27.84271358290519 322.15728641709484
    vertex 22.15728641709481 27.84271358290519 326.6597810755304
  endloop
endfacet
facet normal -1.0 -3.5249581031848614e-15 5.639932965095675e-17
  outer loop
    vertex 21.464466094067262 28.535533905932734 346.46446609406723
    vertex 21.464466094067266 27.335533905932735 326.98896026004576
    vertex 21.464466094067266 27.335533905932735 346.46446609406723
  endloop
endfacet
facet normal -1.0 -3.5249581031848614e-15 5.639932965095675e-17
  outer loop
    vertex 21.464466094067266 27.335533905932735 326.98896026004576
    vertex 21.464466094067262 28.535533905932734 346.46446609406723
    vertex 21.464466094067266 27.335533905932735 321.46446609406723
  endloop
endfacet
facet normal -1.0 -3.5249581031848614e-15 5.639932965095675e-17
  outer loop
    vertex 21.464466094067266 27.335533905932735 321.46446609406723
    vertex 21.464466094067262 28.535533905932734 346.46446609406723
    vertex 21.46446609406726 28.535533905932752 321.46446609406723
  endloop
endfacet
facet normal -0.7071067811865569 -1.6737589720681205e-15 0.7071067811865381
  outer loop
    vertex 21.464466094067262 28.535533905932734 346.46446609406723
    vertex 21.464466094067266 27.335533905932735 346.46446609406723
    vertex 22.15728641709481 27.84271358290519 347.1572864170948
  endloop
endfacet
facet normal 0.707106781186555 -3.3221579597109423e-15 -0.7071067811865401
  outer loop
    vertex 21.464466094067266 22.664466094067258 346.46446609406723
    vertex 22.157286417094813 22.157286417094813 347.1572864170948
    vertex 21.46446609406726 21.464466094067255 346.46446609406723
  endloop
endfacet
facet normal 1.0 -4.699944137579827e-15 -0.0
  outer loop
    vertex 21.464466094067266 22.664466094067258 321.46446609406723
    vertex 21.46446609406726 21.464466094067255 346.46446609406723
    vertex 21.46446609406726 21.464466094067255 321.46446609406723
  endloop
endfacet
facet normal 1.0 -4.699944137579827e-15 -0.0
  outer loop
    vertex 21.46446609406726 21.464466094067255 346.46446609406723
    vertex 21.464466094067266 22.664466094067258 321.46446609406723
    vertex 21.464466094067266 22.664466094067258 346.46446609406723
  endloop
endfacet
facet normal 1.0 -4.699944137579827e-15 -0.0
  outer loop
    vertex 21.464466094067266 22.664466094067258 346.46446609406723
    vertex 21.464466094067266 22.664466094067258 321.46446609406723
    vertex 21.464466094067276 22.664466094067258 326.98896026004576
  endloop
endfacet
facet normal 0.7071067811865475 3.1580412313018906e-17 -0.7071067811865477
  outer loop
    vertex 21.46446609406726 28.535533905932752 321.46446609406723
    vertex 0.0 0.0 300.0
    vertex 0.0 49.99999999999999 300.0
  endloop
endfacet
facet normal 0.7071067811865475 3.1580412313018906e-17 -0.7071067811865477
  outer loop
    vertex 0.0 0.0 300.0
    vertex 21.46446609406726 28.535533905932752 321.46446609406723
    vertex 21.46446609406726 21.464466094067255 321.46446609406723
  endloop
endfacet
facet normal 0.7071067811865475 3.1580412313018906e-17 -0.7071067811865477
  outer loop
    vertex 21.46446609406726 21.464466094067255 321.46446609406723
    vertex 21.46446609406726 28.535533905932752 321.46446609406723
    vertex 21.464466094067266 27.335533905932735 321.46446609406723
  endloop
endfacet
facet normal 0.7071067811865475 3.1580412313018906e-17 -0.7071067811865477
  outer loop
    vertex 21.46446609406726 21.464466094067255 321.46446609406723
    vertex 21.464466094067266 27.335533905932735 321.46446609406723
    vertex 21.464466094067266 22.664466094067258 321.46446609406723
  endloop
endfacet
facet normal 0.7071067811865475 3.1580412313018906e-17 -0.7071067811865477
  outer loop
    vertex 21.464466094067266 22.664466094067258 321.46446609406723
    vertex 21.464466094067266 27.335533905932735 321.46446609406723
    vertex 22.15728641709481 27.84271358290519 322.15728641709484
  endloop
endfacet
facet normal 0.7071067811865475 3.1580412313018906e-17 -0.7071067811865477
  outer loop
    vertex 21.464466094067266 22.664466094067258 321.46446609406723
    vertex 22.15728641709481 27.84271358290519 322.15728641709484
    vertex 22.157286417094813 22.157286417094813 322.15728641709484
  endloop
endfacet
facet normal 0.7071067811865475 3.1580412313018906e-17 -0.7071067811865477
  outer loop
    vertex 22.157286417094813 22.157286417094813 322.15728641709484
    vertex 22.15728641709481 27.84271358290519 322.15728641709484
    vertex 24.422649730810377 25.57735026918962 324.42264973081035
  endloop
endfacet
facet normal 0.7071067811865475 3.1580412313018906e-17 -0.7071067811865477
  outer loop
    vertex 22.157286417094813 22.157286417094813 322.15728641709484
    vertex 24.422649730810377 25.57735026918962 324.42264973081035
    vertex 24.422649730810363 24.42264973081036 324.4226497308104
  endloop
endfacet
facet normal 0.7071067811865475 3.1580412313018906e-17 -0.7071067811865477
  outer loop
    vertex 24.422649730810363 24.42264973081036 324.4226497308104
    vertex 24.422649730810377 25.57735026918962 324.42264973081035
    vertex 24.422649730810374 24.999999999999996 324.42264973081035
  endloop
endfacet
facet normal -0.5906904945688735 -0.8068982213550726 7.187035653105395e-16
  outer loop
    vertex 22.157286417094813 22.157286417094813 322.15728641709484
    vertex 21.464466094067276 22.664466094067258 326.98896026004576
    vertex 21.464466094067266 22.664466094067258 321.46446609406723
  endloop
endfacet
facet normal -0.5906904945688735 -0.8068982213550726 7.187035653105395e-16
  outer loop
    vertex 21.464466094067276 22.664466094067258 326.98896026004576
    vertex 22.157286417094813 22.157286417094813 322.15728641709484
    vertex 22.157286417094813 22.157286417094813 326.6597810755304
  endloop
endfacet
facet normal 0.4099495057248222 -0.8147900376857655 -0.40994950572479394
  outer loop
    vertex 25.0 24.999999999999996 325.0
    vertex 22.157286417094802 22.734636686284414 326.65978107553036
    vertex 24.422649730810374 24.999999999999996 324.42264973081035
  endloop
endfacet
facet normal 0.4099495057248222 -0.8147900376857655 -0.40994950572479394
  outer loop
    vertex 22.157286417094802 22.734636686284414 326.65978107553036
    vertex 25.0 24.999999999999996 325.0
    vertex 22.157286417094813 22.157286417094813 327.8072864170948
  endloop
endfacet
facet normal 0.7026592002409335 5.502699790814447e-14 0.7115265619193508
  outer loop
    vertex 22.157286417094813 22.157286417094813 326.6597810755304
    vertex 24.422649730810374 24.999999999999996 324.42264973081035
    vertex 22.157286417094802 22.734636686284414 326.65978107553036
  endloop
endfacet
facet normal 0.7026592002409335 5.502699790814447e-14 0.7115265619193508
  outer loop
    vertex 24.422649730810374 24.999999999999996 324.42264973081035
    vertex 22.157286417094813 22.157286417094813 326.6597810755304
    vertex 24.422649730810363 24.42264973081036 324.4226497308104
  endloop
endfacet
facet normal 0.40994950572482197 0.8147900376857651 -0.40994950572479516
  outer loop
    vertex 22.1572864170948 27.265363313715586 326.65978107553036
    vertex 25.0 24.999999999999996 325.0
    vertex 24.422649730810374 24.999999999999996 324.42264973081035
  endloop
endfacet
facet normal 0.40994950572482197 0.8147900376857651 -0.40994950572479516
  outer loop
    vertex 25.0 24.999999999999996 325.0
    vertex 22.1572864170948 27.265363313715586 326.65978107553036
    vertex 22.15728641709481 27.84271358290519 327.8072864170948
  endloop
endfacet
facet normal 0.7026592002409429 -3.974172071143656e-14 0.7115265619193416
  outer loop
    vertex 24.422649730810374 24.999999999999996 324.42264973081035
    vertex 22.15728641709481 27.84271358290519 326.6597810755304
    vertex 22.1572864170948 27.265363313715586 326.65978107553036
  endloop
endfacet
facet normal 0.7026592002409429 -3.974172071143656e-14 0.7115265619193416
  outer loop
    vertex 22.15728641709481 27.84271358290519 326.6597810755304
    vertex 24.422649730810374 24.999999999999996 324.42264973081035
    vertex 24.422649730810377 25.57735026918962 324.42264973081035
  endloop
endfacet
facet normal 0.5906904945688802 -0.8068982213550676 -4.914551839924569e-19
  outer loop
    vertex 22.15728641709481 27.84271358290519 327.8072864170948
    vertex 21.464466094067266 27.335533905932735 346.46446609406723
    vertex 21.464466094067266 27.335533905932735 326.98896026004576
  endloop
endfacet
facet normal 0.5906904945688802 -0.8068982213550676 -4.914551839924569e-19
  outer loop
    vertex 21.464466094067266 27.335533905932735 346.46446609406723
    vertex 22.15728641709481 27.84271358290519 327.8072864170948
    vertex 22.15728641709481 27.84271358290519 347.1572864170948
  endloop
endfacet
facet normal -0.5906904945688732 -0.8068982213550726 -7.49702561145662e-17
  outer loop
    vertex 22.157286417094813 22.157286417094813 327.8072864170948
    vertex 21.464466094067266 22.664466094067258 346.46446609406723
    vertex 21.464466094067276 22.664466094067258 326.98896026004576
  endloop
endfacet
facet normal -0.5906904945688732 -0.8068982213550726 -7.49702561145662e-17
  outer loop
    vertex 21.464466094067266 22.664466094067258 346.46446609406723
    vertex 22.157286417094813 22.157286417094813 327.8072864170948
    vertex 22.157286417094813 22.157286417094813 347.1572864170948
  endloop
endfacet
facet normal 0.4291520468407079 4.685236940493567e-16 0.9032322628717548
  outer loop
    vertex 21.464466094067276 22.664466094067258 326.98896026004576
    vertex 22.157286417094802 22.734636686284414 326.65978107553036
    vertex 22.1572864170948 27.265363313715586 326.65978107553036
  endloop
endfacet
facet normal 0.4291520468407079 4.685236940493567e-16 0.9032322628717548
  outer loop
    vertex 22.157286417094802 22.734636686284414 326.65978107553036
    vertex 21.464466094067276 22.664466094067258 326.98896026004576
    vertex 22.157286417094813 22.157286417094813 326.6597810755304
  endloop
endfacet
facet normal 0.4291520468407079 4.685236940493567e-16 0.9032322628717548
  outer loop
    vertex 21.464466094067276 22.664466094067258 326.98896026004576
    vertex 22.15728641709481 27.84271358290519 326.6597810755304
    vertex 21.464466094067266 27.335533905932735 326.98896026004576
  endloop
endfacet
facet normal 0.4291520468407079 4.685236940493567e-16 0.9032322628717548
  outer loop
    vertex 22.15728641709481 27.84271358290519 326.6597810755304
    vertex 21.464466094067276 22.664466094067258 326.98896026004576
    vertex 22.1572864170948 27.265363313715586 326.65978107553036
  endloop
endfacet
facet normal 0.7632066699015166 9.733240345860447e-16 -0.646154454459487
  outer loop
    vertex 21.464466094067276 22.664466094067258 326.98896026004576
    vertex 22.15728641709481 27.84271358290519 327.8072864170948
    vertex 22.157286417094813 22.157286417094813 327.8072864170948
  endloop
endfacet
facet normal 0.7632066699015166 9.733240345860447e-16 -0.646154454459487
  outer loop
    vertex 22.15728641709481 27.84271358290519 327.8072864170948
    vertex 21.464466094067276 22.664466094067258 326.98896026004576
    vertex 21.464466094067266 27.335533905932735 326.98896026004576
  endloop
endfacet
facet normal -1.0 1.3517146617560743e-16 7.0744678281480066e-15
  outer loop
    vertex 22.15728641709481 27.84271358290519 327.8072864170948
    vertex 22.157286417094802 22.734636686284414 326.65978107553036
    vertex 22.157286417094813 22.157286417094813 327.8072864170948
  endloop
endfacet
facet normal -1.0 1.3517146617560743e-16 7.0744678281480066e-15
  outer loop
    vertex 22.157286417094802 22.734636686284414 326.65978107553036
    vertex 22.15728641709481 27.84271358290519 327.8072864170948
    vertex 22.1572864170948 27.265363313715586 326.65978107553036
  endloop
endfacet
facet normal -0.0 -0.0 1.0
  outer loop
    vertex 50.0 0.0 0.0
    vertex 0.0 49.99999999999999 0.0
    vertex 0.0 0.0 0.0
  endloop
endfacet
facet normal -0.0 -0.0 1.0
  outer loop
    vertex 0.0 49.99999999999999 0.0
    vertex 50.0 0.0 0.0
    vertex 50.0 49.99999999999999 0.0
  endloop
endfacet
endsolid BankOfChina
